<svg xmlns="http://www.w3.org/2000/svg" xmlns:xlink="http://www.w3.org/1999/xlink" fill="none" version="1.1" width="3091" height="3091.000244140625" viewBox="0 0 3091 3091.000244140625"><defs><filter id="master_svg0_228_154" filterUnits="objectBoundingBox" color-interpolation-filters="sRGB" x="-0.16057806535382207" y="-0.16057806535382207" width="1.321156130707644" height="1.321156130707644"><feFlood flood-opacity="0" result="BackgroundImageFix"/><feColorMatrix in="SourceAlpha" type="matrix" values="0 0 0 0 0 0 0 0 0 0 0 0 0 0 0 0 0 0 127 0"/><feOffset dy="0" dx="0"/><feGaussianBlur stdDeviation="100"/><feColorMatrix type="matrix" values="0 0 0 0 0.5892857313156128 0 0 0 0 0 0 0 0 0 0 0 0 0 1 0"/><feBlend mode="normal" in2="BackgroundImageFix" result="effect1_dropShadow"/><feBlend mode="normal" in="SourceGraphic" in2="effect1_dropShadow" result="shape"/></filter><linearGradient x1="0.10000000149011612" y1="0" x2="2.7699999809265137" y2="2.09500002861023" id="master_svg1_190_086"><stop offset="0%" stop-color="#FF6767" stop-opacity="1"/><stop offset="97.85714149475098%" stop-color="#FFAFAF" stop-opacity="0"/></linearGradient><filter id="master_svg2_228_153" filterUnits="objectBoundingBox" color-interpolation-filters="sRGB" x="0" y="0" width="1" height="1"><feFlood flood-opacity="0" result="BackgroundImageFix"/><feBlend mode="normal" in="SourceGraphic" in2="BackgroundImageFix" result="shape"/><feColorMatrix in="SourceAlpha" type="matrix" result="hardAlpha" values="0 0 0 0 0 0 0 0 0 0 0 0 0 0 0 0 0 0 127 0"/><feOffset dy="0" dx="0"/><feGaussianBlur stdDeviation="5"/><feComposite in2="hardAlpha" operator="arithmetic" k2="-1" k3="1"/><feColorMatrix type="matrix" values="0 0 0 0 0 0 0 0 0 0 0 0 0 0 0 0 0 0 0.550000011920929 0"/><feBlend mode="normal" in2="shape" result="effect1_innerShadow"/></filter><filter id="master_svg3_228_152" filterUnits="objectBoundingBox" color-interpolation-filters="sRGB" x="0" y="0" width="1" height="1"><feFlood flood-opacity="0" result="BackgroundImageFix"/><feBlend mode="normal" in="SourceGraphic" in2="BackgroundImageFix" result="shape"/><feColorMatrix in="SourceAlpha" type="matrix" result="hardAlpha" values="0 0 0 0 0 0 0 0 0 0 0 0 0 0 0 0 0 0 127 0"/><feOffset dy="0" dx="0"/><feGaussianBlur stdDeviation="100"/><feComposite in2="hardAlpha" operator="arithmetic" k2="-1" k3="1"/><feColorMatrix type="matrix" values="0 0 0 0 0 0 0 0 0 0 0 0 0 0 0 0 0 0 0.4099999964237213 0"/><feBlend mode="normal" in2="shape" result="effect1_innerShadow"/></filter><clipPath id="bgblur_master_svg4_228_152_clip_path"><ellipse cx="272.6834411621094" cy="272.6834411621094" rx="272.6834411621094" ry="272.6834411621094"/></clipPath></defs><path d="M300,1545.5001C305.6047516,1133.2396199999998,377.532379,791.34982,587.71057,587.71057C791.34982,378.777878,1133.2396199999998,306.8502517,1545.5001,300C1957.7607,305.6047511,2298.4052,377.532372,2503.29,587.71057C2713.4683,791.34982,2785.3958,1133.2396199999998,2791.0002,1545.5001C2785.3958,1957.7607,2713.4683,2298.4052,2503.29,2503.29C2298.4052,2712.2227,1957.7607,2784.1504,1545.5001,2791.0002C1133.2396199999998,2785.3958,791.34982,2713.468,587.71054,2503.29C378.777893,2298.4052,305.6047516,1957.7607,300,1545.5001Z" fill="url(#master_svg1_190_086)" fill-opacity="1" filter="url(#master_svg0_228_154)"/><path d="M748.388671875,1551.7257127929688C752.003735775,1285.817622792969,798.397056875,1065.2987027929687,933.961961875,933.9514027929688C1065.309261875,799.1898387929688,1285.8281818750002,752.7965240929688,1551.736271875,748.3781127929688C1817.644171875,751.9931766929687,2037.359971875,798.3864977929687,2169.510471875,933.9514027929688C2305.075271875,1065.2987027929687,2351.468471875,1285.817622792969,2355.083871875,1551.7257127929688C2351.468471875,1817.6336127929687,2305.075271875,2037.3494127929687,2169.510471875,2169.4999127929686C2037.359971875,2304.2615127929685,1817.644171875,2350.654712792969,1551.736271875,2355.073312792969C1285.8281818750002,2351.4581127929687,1065.309261875,2305.0647127929687,933.961961875,2169.4999127929686C799.200397875,2037.3494127929687,752.003735775,1817.6336127929687,748.388671875,1551.7257127929688Z" fill="#FFFFFF" fill-opacity="1" filter="url(#master_svg2_228_153)"/><foreignObject x="1906.61328125" y="1862.4044189453125" width="545.3668823242188" height="545.3668823242188"><div xmlns="http://www.w3.org/1999/xhtml" style="backdrop-filter:blur(8.5px);-webkit-backdrop-filter:blur(8.5px);clip-path:url(#bgblur_master_svg4_228_152_clip_path);height:100%;width:100%"></div></foreignObject><ellipse cx="2179.2967224121094" cy="2135.087860107422" rx="272.6834411621094" ry="272.6834411621094" fill="#000000" fill-opacity="0.029999999329447746" filter="url(#master_svg3_228_152)"/></svg>